<svg width="1723" height="1778" viewBox="0 0 1723 1778" fill="none" xmlns="http://www.w3.org/2000/svg">
<line x1="727.722" y1="185.989" x2="515.429" y2="302.408" stroke="#DC234F" stroke-width="24.6534"/>
<line x1="748.671" y1="476.164" x2="532.269" y2="396.725" stroke="#DC234F" stroke-width="10.957"/>
<line x1="546.301" y1="55.7577" x2="636.023" y2="119.036" stroke="#DC234F" stroke-width="6.84816"/>
<line x1="338.453" y1="345.733" x2="164.51" y2="286.839" stroke="#DC234F" stroke-width="24.6534"/>
<line x1="379.398" y1="434.189" x2="271.198" y2="645.112" stroke="#DC234F" stroke-width="24.6534"/>
<circle  cx="421.846" cy="351.863" r="136.963" fill="#DC234F"/>
<path d="M368.431 343.801H380.736V348.188H375.6L377.419 364.506H377.526L382.983 350.381H386.193L391.49 364.506H391.597L393.523 348.188H388.333V343.801H400.531V348.188H398.017L394.539 374.992H390.313L384.321 358.567H384.214L378.435 374.992H374.209L370.999 348.188H368.431V343.801ZM408.144 343.801H434.787L435.055 355.357H430.614L430.133 348.188H417.239V356.373H423.552V352.521H427.992V364.559H423.552V360.761H417.239V370.605H430.614L430.882 363.382H435.322V374.992H408.144V370.605H412.584V348.188H408.144V343.801ZM444.86 343.801H460.055C463.621 343.801 466.297 344.568 468.08 346.101C469.97 347.742 470.915 349.828 470.915 352.361C470.915 354.965 469.952 356.998 468.026 358.46C471.201 360.101 472.788 362.562 472.788 365.843C472.788 367.092 472.592 368.215 472.199 369.214C471.843 370.212 471.397 371.033 470.862 371.675C470.363 372.281 469.685 372.816 468.829 373.28C467.973 373.744 467.188 374.082 466.475 374.296C465.797 374.51 464.941 374.671 463.907 374.778C462.872 374.885 462.088 374.956 461.553 374.992C461.053 374.992 460.394 374.992 459.573 374.992H444.86V370.605H449.194V348.188H444.86V343.801ZM459.948 348.188H453.849V356.587H459.68C460.465 356.587 461.125 356.552 461.66 356.48C462.195 356.409 462.855 356.249 463.639 355.999C464.46 355.749 465.084 355.303 465.512 354.661C465.94 353.984 466.154 353.128 466.154 352.093C466.154 349.49 464.085 348.188 459.948 348.188ZM459.252 360.975H453.849V370.605H459.466C460.893 370.605 462.052 370.569 462.944 370.498C463.835 370.391 464.691 370.195 465.512 369.909C466.368 369.624 466.992 369.178 467.384 368.572C467.777 367.93 467.973 367.109 467.973 366.111C467.973 362.687 465.066 360.975 459.252 360.975Z" fill="white"/>
<circle cx="717.002" cy="177.235" r="93.8197" fill="#232728" stroke="#DC234F" stroke-width="24.6534"/>
<rect width="219.141" height="69.8512" transform="translate(606.746 142.309)" fill="#232728"/>
<path d="M685.954 187.422L688.746 190.504C684.445 194.677 679.983 196.764 675.36 196.764C671.219 196.764 667.929 195.319 665.489 192.43C663.05 189.541 661.83 185.946 661.83 181.644C661.83 177.246 663.13 173.731 665.73 171.099C668.362 168.435 671.268 167.102 674.446 167.102C675.537 167.102 676.548 167.279 677.479 167.632C678.41 167.953 679.116 168.29 679.598 168.643C680.079 168.996 680.689 169.494 681.427 170.136L681.716 167.44H685.713C685.552 169.462 685.472 171.019 685.472 172.11C685.472 173.94 685.633 175.946 685.954 178.129L681.957 178.659C681.829 177.792 681.716 177.134 681.62 176.685C681.524 176.203 681.315 175.561 680.994 174.758C680.673 173.956 680.288 173.346 679.838 172.929C679.421 172.479 678.795 172.094 677.961 171.773C677.158 171.42 676.211 171.243 675.12 171.243C672.68 171.243 670.593 172.174 668.86 174.036C667.127 175.866 666.26 178.386 666.26 181.596C666.26 184.646 667.03 187.246 668.571 189.396C670.112 191.547 672.359 192.623 675.312 192.623C676.821 192.623 678.346 192.285 679.887 191.611C681.427 190.937 682.567 190.311 683.305 189.733C684.076 189.124 684.959 188.353 685.954 187.422ZM709.162 167.44H713.015C712.886 168.852 712.822 170.232 712.822 171.581C712.822 172.865 712.918 174.662 713.111 176.973C713.175 177.166 713.207 177.551 713.207 178.129L709.403 178.659C709.307 177.888 709.211 177.294 709.114 176.877C709.05 176.428 708.874 175.802 708.585 174.999C708.296 174.165 707.927 173.523 707.477 173.073C707.06 172.592 706.45 172.174 705.647 171.821C704.845 171.436 703.914 171.243 702.855 171.243C700.832 171.243 699.292 171.725 698.232 172.688C697.173 173.651 696.643 174.726 696.643 175.914C696.643 176.717 696.852 177.391 697.269 177.936C697.686 178.45 698.296 178.851 699.099 179.14C699.934 179.397 700.576 179.574 701.025 179.67C701.506 179.766 702.165 179.862 702.999 179.959C705.92 180.312 707.846 180.681 708.777 181.066C709.227 181.259 709.66 181.484 710.077 181.74C712.357 183.185 713.496 185.271 713.496 188C713.496 190.472 712.517 192.558 710.559 194.26C708.601 195.929 706.209 196.764 703.384 196.764C702.165 196.764 701.089 196.603 700.158 196.282C699.259 195.961 698.617 195.64 698.232 195.319C697.847 194.998 697.398 194.565 696.884 194.019L696.499 196.908H692.599C692.695 195.945 692.743 194.87 692.743 193.682C692.743 191.274 692.615 188.706 692.358 185.978H696.21C696.627 190.408 698.81 192.623 702.758 192.623C704.428 192.623 705.904 192.253 707.188 191.515C708.504 190.745 709.162 189.605 709.162 188.096C709.162 187.165 708.858 186.411 708.248 185.833C707.67 185.255 707.012 184.886 706.273 184.726C705.567 184.533 704.636 184.373 703.481 184.244C702.774 184.18 702.197 184.116 701.747 184.052C701.33 183.987 700.688 183.875 699.821 183.715C698.954 183.522 698.232 183.313 697.654 183.089C697.077 182.864 696.418 182.543 695.68 182.126C694.942 181.708 694.348 181.243 693.899 180.729C693.449 180.184 693.064 179.509 692.743 178.707C692.454 177.904 692.31 177.006 692.31 176.01C692.31 173.539 693.337 171.436 695.391 169.703C697.446 167.969 699.725 167.102 702.229 167.102C704.7 167.102 706.883 168.114 708.777 170.136L709.162 167.44ZM738.053 167.44H741.905C741.777 168.852 741.713 170.232 741.713 171.581C741.713 172.865 741.809 174.662 742.002 176.973C742.066 177.166 742.098 177.551 742.098 178.129L738.294 178.659C738.198 177.888 738.101 177.294 738.005 176.877C737.941 176.428 737.764 175.802 737.475 174.999C737.186 174.165 736.817 173.523 736.368 173.073C735.951 172.592 735.341 172.174 734.538 171.821C733.736 171.436 732.805 171.243 731.745 171.243C729.723 171.243 728.182 171.725 727.123 172.688C726.064 173.651 725.534 174.726 725.534 175.914C725.534 176.717 725.743 177.391 726.16 177.936C726.577 178.45 727.187 178.851 727.99 179.14C728.824 179.397 729.466 179.574 729.916 179.67C730.397 179.766 731.055 179.862 731.89 179.959C734.811 180.312 736.737 180.681 737.668 181.066C738.117 181.259 738.551 181.484 738.968 181.74C741.247 183.185 742.387 185.271 742.387 188C742.387 190.472 741.408 192.558 739.45 194.26C737.491 195.929 735.1 196.764 732.275 196.764C731.055 196.764 729.98 196.603 729.049 196.282C728.15 195.961 727.508 195.64 727.123 195.319C726.738 194.998 726.288 194.565 725.775 194.019L725.389 196.908H721.489C721.585 195.945 721.634 194.87 721.634 193.682C721.634 191.274 721.505 188.706 721.248 185.978H725.101C725.518 190.408 727.701 192.623 731.649 192.623C733.318 192.623 734.795 192.253 736.079 191.515C737.395 190.745 738.053 189.605 738.053 188.096C738.053 187.165 737.748 186.411 737.138 185.833C736.56 185.255 735.902 184.886 735.164 184.726C734.458 184.533 733.527 184.373 732.371 184.244C731.665 184.18 731.087 184.116 730.638 184.052C730.221 183.987 729.579 183.875 728.712 183.715C727.845 183.522 727.123 183.313 726.545 183.089C725.967 182.864 725.309 182.543 724.571 182.126C723.833 181.708 723.239 181.243 722.789 180.729C722.34 180.184 721.955 179.509 721.634 178.707C721.345 177.904 721.2 177.006 721.2 176.01C721.2 173.539 722.227 171.436 724.282 169.703C726.336 167.969 728.616 167.102 731.119 167.102C733.591 167.102 735.774 168.114 737.668 170.136L738.053 167.44ZM751.102 194.693L749.176 193.923L750.813 190.071C754.152 191.74 756.88 192.574 758.999 192.574C760.572 192.574 761.936 192.109 763.092 191.178C764.279 190.247 764.873 188.899 764.873 187.133C764.873 185.528 764.344 184.276 763.284 183.378C762.257 182.479 760.829 182.029 758.999 182.029C758.293 182.029 757.458 182.061 756.495 182.126V178.129C757.201 178.129 757.763 178.113 758.18 178.081C758.598 178.049 759.175 177.952 759.914 177.792C760.684 177.599 761.278 177.359 761.695 177.07C762.145 176.781 762.546 176.331 762.899 175.721C763.252 175.112 763.429 174.373 763.429 173.507C763.429 172.126 762.947 171.099 761.984 170.425C761.053 169.751 759.994 169.414 758.806 169.414C757.779 169.414 756.832 169.606 755.965 169.992C755.131 170.377 753.734 171.179 751.776 172.399L749.658 168.932C750.909 168.098 751.905 167.472 752.643 167.054C753.413 166.605 754.36 166.188 755.484 165.802C756.639 165.417 757.763 165.225 758.854 165.225C761.198 165.225 763.252 165.979 765.018 167.488C766.815 168.964 767.714 170.906 767.714 173.314C767.714 174.405 767.522 175.417 767.136 176.347C766.783 177.246 766.462 177.888 766.173 178.274C765.884 178.627 765.483 179.06 764.97 179.574C766.286 180.344 767.313 181.403 768.051 182.752C768.79 184.1 769.159 185.544 769.159 187.085C769.159 189.942 768.164 192.253 766.173 194.019C764.183 195.784 761.743 196.667 758.854 196.667C757.924 196.667 756.96 196.555 755.965 196.33C754.97 196.105 754.184 195.897 753.606 195.704C753.06 195.479 752.226 195.142 751.102 194.693Z" fill="white"/>
<circle cx="110.256" cy="227.911" r="93.8197" fill="#232728" stroke="#DC234F" stroke-width="24.6534"/>
<rect width="219.141" height="69.8512" transform="translate(0 192.986)" fill="#232728"/>
<path d="M53.9263 218.597H65.0973V222.546H61.6305V230.202H72.4163V222.546H68.9494V218.597H80.1205V222.546H76.6055V242.721H80.1205V246.67H68.9494V242.721H72.4163V234.15H61.6305V242.721H65.0973V246.67H53.9263V242.721H57.4413V222.546H53.9263V218.597ZM83.8763 218.597H108L108.915 231.309L104.774 231.887L104.148 222.546H98.0327V242.721H103.715V246.67H88.258V242.721H93.8435V222.546H87.7284L87.1024 231.887L82.9614 231.309L83.8763 218.597ZM124.516 232.754H125.383L129.812 218.597H139.057V222.546H136.072L136.361 242.721H139.154V246.67H127.26V242.721H132.316L132.076 225.579H131.498L126.923 239.254H122.686L118.16 225.579H117.582L117.341 242.721H122.397V246.67H110.504V242.721H113.297L113.585 222.546H110.504V218.597H119.749L124.516 232.754ZM141.561 218.597H156.151V222.546H150.373V242.721H161.737L162.363 233.187H166.455L165.829 246.67H141.561V242.721H146.184V222.546H141.561V218.597Z" fill="white"/>
<circle cx="236.263" cy="710.022" r="93.8197" fill="#232728" stroke="#DC234F" stroke-width="24.6534"/>
<rect width="302.688" height="69.8512" transform="translate(84.918 675.096)" fill="#232728"/>
<path d="M102.598 700.708H121.907V704.656H115.936V718.331C115.936 722.022 115.439 724.623 114.444 726.131C112.935 728.411 110.463 729.55 107.028 729.55C103.754 729.55 100.159 728.507 96.2425 726.42L95.761 714.623H99.902L100.143 720.064C100.207 721.252 100.367 722.151 100.624 722.761C100.913 723.339 101.443 723.852 102.213 724.302C103.529 725.04 105.086 725.409 106.884 725.409C107.815 725.409 108.585 725.281 109.195 725.024C109.837 724.767 110.319 724.462 110.64 724.109C110.993 723.756 111.25 723.226 111.41 722.52C111.571 721.782 111.667 721.156 111.699 720.642C111.731 720.096 111.747 719.326 111.747 718.331V704.656H102.598V700.708ZM145.26 713.997V724.831H149.401V728.78H141.071V726.468C138.343 728.459 135.694 729.454 133.126 729.454C130.687 729.454 128.664 728.699 127.059 727.191C125.486 725.65 124.7 723.9 124.7 721.942C124.7 721.14 124.876 720.321 125.229 719.487C125.583 718.62 126.144 717.769 126.915 716.934C127.685 716.068 128.825 715.362 130.333 714.816C131.842 714.27 133.592 713.997 135.582 713.997C136.93 713.997 138.76 714.126 141.071 714.382C141.071 713.773 141.039 713.307 140.975 712.986C140.911 712.633 140.75 712.2 140.493 711.686C140.237 711.14 139.755 710.739 139.049 710.482C138.375 710.225 137.476 710.097 136.352 710.097C134.137 710.097 131.329 710.835 127.926 712.312L126.289 708.46C130.366 706.791 133.736 705.956 136.401 705.956C139.386 705.956 141.601 706.662 143.045 708.075C144.522 709.455 145.26 711.429 145.26 713.997ZM141.071 720.979V718.475C138.599 718.122 136.93 717.946 136.063 717.946C134.779 717.946 133.672 718.074 132.741 718.331C131.81 718.588 131.104 718.877 130.622 719.198C130.173 719.519 129.82 719.904 129.563 720.353C129.306 720.771 129.146 721.108 129.082 721.364C129.049 721.589 129.033 721.798 129.033 721.99C129.033 722.857 129.435 723.627 130.237 724.302C131.072 724.976 132.019 725.313 133.078 725.313C135.807 725.313 138.471 723.868 141.071 720.979ZM151.809 706.967H163.606V710.916H160.38L165.869 722.905L171.455 710.916H168.325V706.967H179.64V710.916H175.884L167.458 728.78H164.039L155.613 710.916H151.809V706.967ZM203.042 713.997V724.831H207.183V728.78H198.852V726.468C196.124 728.459 193.476 729.454 190.908 729.454C188.468 729.454 186.446 728.699 184.841 727.191C183.268 725.65 182.481 723.9 182.481 721.942C182.481 721.14 182.658 720.321 183.011 719.487C183.364 718.62 183.926 717.769 184.696 716.934C185.466 716.068 186.606 715.362 188.115 714.816C189.624 714.27 191.373 713.997 193.363 713.997C194.711 713.997 196.541 714.126 198.852 714.382C198.852 713.773 198.82 713.307 198.756 712.986C198.692 712.633 198.531 712.2 198.275 711.686C198.018 711.14 197.536 710.739 196.83 710.482C196.156 710.225 195.257 710.097 194.134 710.097C191.919 710.097 189.11 710.835 185.707 712.312L184.07 708.46C188.147 706.791 191.517 705.956 194.182 705.956C197.167 705.956 199.382 706.662 200.827 708.075C202.303 709.455 203.042 711.429 203.042 713.997ZM198.852 720.979V718.475C196.381 718.122 194.711 717.946 193.845 717.946C192.561 717.946 191.453 718.074 190.522 718.331C189.591 718.588 188.885 718.877 188.404 719.198C187.954 719.519 187.601 719.904 187.344 720.353C187.088 720.771 186.927 721.108 186.863 721.364C186.831 721.589 186.815 721.798 186.815 721.99C186.815 722.857 187.216 723.627 188.018 724.302C188.853 724.976 189.8 725.313 190.859 725.313C193.588 725.313 196.252 723.868 198.852 720.979ZM230.006 700.226H233.858C233.73 701.638 233.666 703.019 233.666 704.367C233.666 705.651 233.762 707.449 233.955 709.76C234.019 709.953 234.051 710.338 234.051 710.916L230.247 711.445C230.151 710.675 230.054 710.081 229.958 709.664C229.894 709.214 229.717 708.588 229.428 707.786C229.14 706.951 228.77 706.309 228.321 705.86C227.904 705.378 227.294 704.961 226.491 704.608C225.689 704.223 224.758 704.03 223.698 704.03C221.676 704.03 220.135 704.512 219.076 705.475C218.017 706.438 217.487 707.513 217.487 708.701C217.487 709.503 217.696 710.177 218.113 710.723C218.53 711.237 219.14 711.638 219.943 711.927C220.777 712.184 221.419 712.36 221.869 712.456C222.35 712.553 223.008 712.649 223.843 712.745C226.764 713.098 228.69 713.468 229.621 713.853C230.07 714.045 230.504 714.27 230.921 714.527C233.2 715.971 234.34 718.058 234.34 720.787C234.34 723.258 233.361 725.345 231.403 727.046C229.444 728.715 227.053 729.55 224.228 729.55C223.008 729.55 221.933 729.39 221.002 729.069C220.103 728.748 219.461 728.427 219.076 728.106C218.691 727.785 218.241 727.351 217.728 726.805L217.343 729.695H213.442C213.539 728.732 213.587 727.656 213.587 726.468C213.587 724.061 213.458 721.493 213.202 718.764H217.054C217.471 723.194 219.654 725.409 223.602 725.409C225.271 725.409 226.748 725.04 228.032 724.302C229.348 723.531 230.006 722.392 230.006 720.883C230.006 719.952 229.701 719.198 229.091 718.62C228.514 718.042 227.855 717.673 227.117 717.512C226.411 717.32 225.48 717.159 224.324 717.031C223.618 716.967 223.04 716.902 222.591 716.838C222.174 716.774 221.532 716.662 220.665 716.501C219.798 716.309 219.076 716.1 218.498 715.875C217.92 715.65 217.262 715.329 216.524 714.912C215.786 714.495 215.192 714.029 214.742 713.516C214.293 712.97 213.908 712.296 213.587 711.493C213.298 710.691 213.153 709.792 213.153 708.797C213.153 706.325 214.181 704.223 216.235 702.489C218.289 700.756 220.569 699.889 223.072 699.889C225.544 699.889 227.727 700.9 229.621 702.923L230.006 700.226ZM259.812 706.293L263.568 706.678C263.375 708.412 263.279 710.017 263.279 711.493C263.279 712.842 263.375 714.254 263.568 715.731L259.523 716.26C259.362 715.265 259.218 714.527 259.09 714.045C258.961 713.532 258.688 712.954 258.271 712.312C257.886 711.638 257.276 711.156 256.441 710.867C255.607 710.579 254.531 710.434 253.215 710.434C251.61 710.434 250.23 710.723 249.074 711.301C247.951 711.847 247.132 712.553 246.618 713.419C246.105 714.254 245.736 715.041 245.511 715.779C245.318 716.517 245.222 717.207 245.222 717.849C245.222 719.775 245.848 721.509 247.1 723.05C248.384 724.558 250.31 725.313 252.878 725.313C254.034 725.313 255.27 725.056 256.586 724.542C257.902 724.029 258.977 723.515 259.812 723.002C260.678 722.488 261.722 721.798 262.942 720.931L265.253 724.205C260.695 727.704 256.505 729.454 252.685 729.454C249.219 729.454 246.362 728.346 244.115 726.131C241.9 723.916 240.792 721.172 240.792 717.898C240.792 714.848 241.851 712.151 243.97 709.808C246.089 707.465 248.946 706.293 252.541 706.293C255.013 706.293 257.292 707.176 259.378 708.941L259.812 706.293ZM270.261 706.967H279.794V710.53C280.693 709.664 281.448 708.99 282.058 708.508C282.7 708.027 283.614 707.545 284.802 707.064C285.99 706.55 287.226 706.293 288.51 706.293C289.633 706.293 290.677 706.486 291.64 706.871C292.603 707.256 293.277 707.609 293.662 707.93C294.047 708.251 294.513 708.685 295.058 709.23L290.773 712.505C289.97 711.124 288.943 710.434 287.691 710.434C287.306 710.434 286.889 710.514 286.439 710.675C286.022 710.803 285.605 710.98 285.187 711.205C284.77 711.429 284.337 711.702 283.887 712.023C283.47 712.344 283.085 712.665 282.732 712.986C282.379 713.275 282.009 713.596 281.624 713.949C281.271 714.302 280.982 714.591 280.758 714.816C280.533 715.041 280.324 715.265 280.132 715.49L279.794 715.827V724.831H288.702V728.78H269.827V724.831H275.605V710.916H270.261V706.967ZM301.27 706.967H312.345V724.831H320.386V728.78H299.97V724.831H308.155V710.916H301.27V706.967ZM307.241 702.778V696.422H312.345V702.778H307.241ZM325.105 706.967H333.098V708.797C335.056 707.128 337.447 706.293 340.272 706.293C343.579 706.293 346.275 707.433 348.362 709.712C350.48 711.991 351.54 714.623 351.54 717.609C351.54 720.915 350.384 723.66 348.073 725.842C345.794 728.025 343.209 729.117 340.32 729.117C337.592 729.117 335.184 728.234 333.098 726.468V732.15H340.032V736.099H325.105V732.15H328.909V710.916H325.105V706.967ZM332.905 717.512C332.905 719.791 333.676 721.605 335.216 722.953C336.757 724.302 338.426 724.976 340.224 724.976C342.118 724.976 343.739 724.27 345.087 722.857C346.436 721.445 347.11 719.695 347.11 717.609C347.11 715.715 346.516 714.045 345.328 712.601C344.14 711.156 342.455 710.434 340.272 710.434C338.154 710.434 336.388 711.14 334.976 712.553C333.595 713.933 332.905 715.586 332.905 717.512ZM361.17 700.708H365.359V707.449H376.337V711.397H365.359V719.487C365.359 720.385 365.359 721.027 365.359 721.413C365.391 721.798 365.471 722.311 365.6 722.953C365.728 723.563 365.905 723.997 366.129 724.253C366.386 724.51 366.755 724.751 367.237 724.976C367.75 725.2 368.376 725.313 369.115 725.313C370.014 725.313 370.944 725.2 371.908 724.976C372.871 724.751 373.641 724.526 374.219 724.302C374.829 724.077 375.76 723.708 377.012 723.194L378.552 722.568L380.141 726.372C375.679 728.427 372.132 729.454 369.5 729.454C366.707 729.454 364.605 728.732 363.192 727.287C362.325 726.356 361.764 725.297 361.507 724.109C361.282 722.889 361.17 721.348 361.17 719.487V711.397H357.992V707.449H361.17V700.708Z" fill="white"/>
<circle id="test" cx="520.679" cy="41.0889" r="37.6649" fill="#232728" stroke="#DC234F" stroke-width="6.84816" stroke-dasharray="12.33 12.33"/>
<rect width="138.333" height="34.2408" transform="translate(450.826 24.6534)" fill="#232728"/>
<path d="M505.49 37.8093H507.095C507.041 38.3979 507.015 38.973 507.015 39.5348C507.015 40.0698 507.055 40.8188 507.135 41.7818C507.162 41.8621 507.175 42.0226 507.175 42.2633L505.59 42.484C505.55 42.163 505.51 41.9156 505.47 41.7417C505.443 41.5544 505.369 41.2936 505.249 40.9592C505.129 40.6115 504.975 40.344 504.788 40.1567C504.614 39.9561 504.36 39.7822 504.025 39.6351C503.691 39.4746 503.303 39.3943 502.861 39.3943C502.019 39.3943 501.377 39.5949 500.935 39.9962C500.494 40.3975 500.273 40.8455 500.273 41.3404C500.273 41.6748 500.36 41.9557 500.534 42.1831C500.708 42.3971 500.962 42.5643 501.297 42.6846C501.644 42.7916 501.912 42.8652 502.099 42.9053C502.3 42.9455 502.574 42.9856 502.922 43.0257C504.139 43.1728 504.941 43.3267 505.329 43.4872C505.516 43.5674 505.697 43.661 505.871 43.768C506.821 44.3699 507.295 45.2393 507.295 46.3762C507.295 47.4061 506.887 48.2755 506.072 48.9844C505.256 49.6799 504.259 50.0277 503.082 50.0277C502.574 50.0277 502.126 49.9608 501.738 49.8271C501.363 49.6933 501.096 49.5595 500.935 49.4258C500.775 49.292 500.588 49.1115 500.374 48.8841L500.213 50.0879H498.588C498.628 49.6866 498.648 49.2385 498.648 48.7437C498.648 47.7405 498.595 46.6705 498.488 45.5336H500.093C500.267 47.3794 501.176 48.3023 502.821 48.3023C503.517 48.3023 504.132 48.1485 504.667 47.8408C505.216 47.5198 505.49 47.045 505.49 46.4164C505.49 46.0285 505.363 45.7141 505.109 45.4734C504.868 45.2326 504.594 45.0788 504.286 45.0119C503.992 44.9317 503.604 44.8648 503.122 44.8113C502.828 44.7846 502.587 44.7578 502.4 44.7311C502.226 44.7043 501.959 44.6575 501.598 44.5906C501.236 44.5104 500.935 44.4234 500.695 44.3298C500.454 44.2362 500.18 44.1024 499.872 43.9285C499.564 43.7547 499.317 43.5607 499.13 43.3467C498.943 43.1193 498.782 42.8385 498.648 42.5041C498.528 42.1697 498.468 41.7952 498.468 41.3805C498.468 40.3507 498.896 39.4746 499.752 38.7523C500.608 38.03 501.557 37.6689 502.601 37.6689C503.631 37.6689 504.54 38.0902 505.329 38.9329L505.49 37.8093ZM518.33 43.5473V48.0615H520.055V49.7067H516.585V48.7437C515.448 49.5729 514.344 49.9876 513.274 49.9876C512.258 49.9876 511.415 49.6732 510.746 49.0446C510.091 48.4026 509.763 47.6736 509.763 46.8577C509.763 46.5234 509.837 46.1823 509.984 45.8345C510.131 45.4734 510.365 45.1189 510.686 44.7712C511.007 44.4101 511.482 44.1158 512.111 43.8884C512.739 43.661 513.468 43.5473 514.297 43.5473C514.859 43.5473 515.622 43.6008 516.585 43.7079C516.585 43.4537 516.571 43.2598 516.544 43.126C516.518 42.9789 516.451 42.7983 516.344 42.5843C516.237 42.3569 516.036 42.1898 515.742 42.0828C515.461 41.9757 515.087 41.9222 514.618 41.9222C513.695 41.9222 512.525 42.2299 511.107 42.8451L510.425 41.2401C512.124 40.5446 513.528 40.1968 514.638 40.1968C515.882 40.1968 516.805 40.4911 517.407 41.0796C518.022 41.6547 518.33 42.4773 518.33 43.5473ZM516.585 46.4565V45.4132C515.555 45.2661 514.859 45.1925 514.498 45.1925C513.963 45.1925 513.502 45.246 513.114 45.353C512.726 45.46 512.432 45.5804 512.231 45.7141C512.044 45.8479 511.896 46.0084 511.789 46.1957C511.682 46.3695 511.616 46.51 511.589 46.617C511.575 46.7106 511.569 46.7975 511.569 46.8778C511.569 47.2389 511.736 47.5599 512.07 47.8408C512.418 48.1217 512.813 48.2621 513.254 48.2621C514.391 48.2621 515.501 47.6603 516.585 46.4565ZM529.565 37.8093H531.17C531.117 38.3979 531.09 38.973 531.09 39.5348C531.09 40.0698 531.13 40.8188 531.21 41.7818C531.237 41.8621 531.251 42.0226 531.251 42.2633L529.666 42.484C529.625 42.163 529.585 41.9156 529.545 41.7417C529.518 41.5544 529.445 41.2936 529.325 40.9592C529.204 40.6115 529.05 40.344 528.863 40.1567C528.689 39.9561 528.435 39.7822 528.101 39.6351C527.766 39.4746 527.378 39.3943 526.937 39.3943C526.094 39.3943 525.452 39.5949 525.011 39.9962C524.57 40.3975 524.349 40.8455 524.349 41.3404C524.349 41.6748 524.436 41.9557 524.61 42.1831C524.784 42.3971 525.038 42.5643 525.372 42.6846C525.72 42.7916 525.987 42.8652 526.175 42.9053C526.375 42.9455 526.649 42.9856 526.997 43.0257C528.214 43.1728 529.017 43.3267 529.405 43.4872C529.592 43.5674 529.773 43.661 529.946 43.768C530.896 44.3699 531.371 45.2393 531.371 46.3762C531.371 47.4061 530.963 48.2755 530.147 48.9844C529.331 49.6799 528.335 50.0277 527.158 50.0277C526.649 50.0277 526.201 49.9608 525.814 49.8271C525.439 49.6933 525.171 49.5595 525.011 49.4258C524.85 49.292 524.663 49.1115 524.449 48.8841L524.289 50.0879H522.664C522.704 49.6866 522.724 49.2385 522.724 48.7437C522.724 47.7405 522.67 46.6705 522.563 45.5336H524.168C524.342 47.3794 525.252 48.3023 526.897 48.3023C527.592 48.3023 528.208 48.1485 528.743 47.8408C529.291 47.5198 529.565 47.045 529.565 46.4164C529.565 46.0285 529.438 45.7141 529.184 45.4734C528.943 45.2326 528.669 45.0788 528.362 45.0119C528.067 44.9317 527.679 44.8648 527.198 44.8113C526.904 44.7846 526.663 44.7578 526.476 44.7311C526.302 44.7043 526.034 44.6575 525.673 44.5906C525.312 44.5104 525.011 44.4234 524.77 44.3298C524.529 44.2362 524.255 44.1024 523.948 43.9285C523.64 43.7547 523.393 43.5607 523.205 43.3467C523.018 43.1193 522.858 42.8385 522.724 42.5041C522.603 42.1697 522.543 41.7952 522.543 41.3805C522.543 40.3507 522.971 39.4746 523.827 38.7523C524.683 38.03 525.633 37.6689 526.676 37.6689C527.706 37.6689 528.616 38.0902 529.405 38.9329L529.565 37.8093ZM541.603 37.8093H543.208C543.155 38.3979 543.128 38.973 543.128 39.5348C543.128 40.0698 543.168 40.8188 543.248 41.7818C543.275 41.8621 543.288 42.0226 543.288 42.2633L541.703 42.484C541.663 42.163 541.623 41.9156 541.583 41.7417C541.556 41.5544 541.483 41.2936 541.362 40.9592C541.242 40.6115 541.088 40.344 540.901 40.1567C540.727 39.9561 540.473 39.7822 540.138 39.6351C539.804 39.4746 539.416 39.3943 538.975 39.3943C538.132 39.3943 537.49 39.5949 537.049 39.9962C536.607 40.3975 536.387 40.8455 536.387 41.3404C536.387 41.6748 536.474 41.9557 536.648 42.1831C536.821 42.3971 537.076 42.5643 537.41 42.6846C537.758 42.7916 538.025 42.8652 538.212 42.9053C538.413 42.9455 538.687 42.9856 539.035 43.0257C540.252 43.1728 541.055 43.3267 541.443 43.4872C541.63 43.5674 541.81 43.661 541.984 43.768C542.934 44.3699 543.409 45.2393 543.409 46.3762C543.409 47.4061 543.001 48.2755 542.185 48.9844C541.369 49.6799 540.373 50.0277 539.195 50.0277C538.687 50.0277 538.239 49.9608 537.851 49.8271C537.477 49.6933 537.209 49.5595 537.049 49.4258C536.888 49.292 536.701 49.1115 536.487 48.8841L536.326 50.0879H534.701C534.742 49.6866 534.762 49.2385 534.762 48.7437C534.762 47.7405 534.708 46.6705 534.601 45.5336H536.206C536.38 47.3794 537.29 48.3023 538.935 48.3023C539.63 48.3023 540.245 48.1485 540.78 47.8408C541.329 47.5198 541.603 47.045 541.603 46.4164C541.603 46.0285 541.476 45.7141 541.222 45.4734C540.981 45.2326 540.707 45.0788 540.399 45.0119C540.105 44.9317 539.717 44.8648 539.236 44.8113C538.941 44.7846 538.701 44.7578 538.513 44.7311C538.339 44.7043 538.072 44.6575 537.711 44.5906C537.35 44.5104 537.049 44.4234 536.808 44.3298C536.567 44.2362 536.293 44.1024 535.985 43.9285C535.678 43.7547 535.43 43.5607 535.243 43.3467C535.056 43.1193 534.895 42.8385 534.762 42.5041C534.641 42.1697 534.581 41.7952 534.581 41.3805C534.581 40.3507 535.009 39.4746 535.865 38.7523C536.721 38.03 537.671 37.6689 538.714 37.6689C539.744 37.6689 540.653 38.0902 541.443 38.9329L541.603 37.8093Z" fill="white"/>
<circle cx="795.757" cy="514.849" r="63.003" fill="#232728" stroke="#DC234F" stroke-width="10.957"/>
<rect width="154.768" height="61.6334" transform="translate(717.688 483.348)" fill="#232728"/>
<path d="M764.098 506.008H773.688C776.416 506.008 778.45 506.382 779.787 507.131C780.911 507.746 781.82 508.656 782.516 509.86C783.211 511.037 783.559 512.281 783.559 513.591C783.559 514.768 783.251 515.932 782.636 517.082C782.047 518.206 781.298 519.022 780.389 519.53C779.346 520.119 778.316 520.493 777.299 520.654C776.309 520.787 774.571 520.854 772.083 520.854H770.678V526.111H776.376V529.401H764.098V526.111H767.188V509.298H764.098V506.008ZM773.728 509.298H770.678V517.564H772.123C774.076 517.564 775.44 517.497 776.216 517.363C777.018 517.23 777.7 517.016 778.262 516.721C778.637 516.534 778.998 516.146 779.346 515.558C779.693 514.942 779.867 514.247 779.867 513.471C779.867 512.695 779.68 511.986 779.306 511.344C778.931 510.702 778.49 510.248 777.981 509.98C777.152 509.525 775.734 509.298 773.728 509.298ZM786.047 506.008H795.356V509.298H792.467V515.678H801.455V509.298H798.566V506.008H807.875V509.298H804.946V526.111H807.875V529.401H798.566V526.111H801.455V518.968H792.467V526.111H795.356V529.401H786.047V526.111H788.976V509.298H786.047V506.008ZM812.249 506.008H821.839C824.568 506.008 826.601 506.382 827.938 507.131C829.062 507.746 829.971 508.656 830.667 509.86C831.362 511.037 831.71 512.281 831.71 513.591C831.71 514.768 831.402 515.932 830.787 517.082C830.199 518.206 829.45 519.022 828.54 519.53C827.497 520.119 826.467 520.493 825.45 520.654C824.461 520.787 822.722 520.854 820.234 520.854H818.83V526.111H824.527V529.401H812.249V526.111H815.339V509.298H812.249V506.008ZM821.879 509.298H818.83V517.564H820.274C822.227 517.564 823.591 517.497 824.367 517.363C825.169 517.23 825.852 517.016 826.413 516.721C826.788 516.534 827.149 516.146 827.497 515.558C827.845 514.942 828.018 514.247 828.018 513.471C828.018 512.695 827.831 511.986 827.457 511.344C827.082 510.702 826.641 510.248 826.132 509.98C825.303 509.525 823.885 509.298 821.879 509.298Z" fill="white"/>
<line x1="1206.12" y1="1251.01" x2="859.603" y2="1586.57" stroke="#DC7123" stroke-width="6.84816"/>
<line x1="1172.73" y1="1229.05" x2="957.703" y2="1307.12" stroke="#DC7123" stroke-width="10.957"/>
<line x1="1252.85" y1="1272.65" x2="1183" y2="1661.62" stroke="#DC7123" stroke-width="24.6534"/>
<line x1="1342.9" y1="1260.82" x2="1604.5" y2="1469.01" stroke="#DC7123" stroke-width="24.6534"/>
<circle cx="1279.07" cy="1175.96" r="130.115" fill="#DC7123" stroke="#DC7123" stroke-width="13.6963"/>
<path d="M1185.12 1167.18H1197.28V1170.47H1192.46V1187.28H1201.93L1202.45 1179.34H1205.86L1205.34 1190.57H1185.12V1187.28H1188.97V1170.47H1185.12V1167.18ZM1215.18 1167.18H1224.85L1233 1187.28H1235.25V1190.57H1225.74V1187.28H1229.27L1227.7 1183.35H1218.67L1217.11 1187.28H1220.68V1190.57H1211.17V1187.28H1213.5L1220.36 1170.47H1215.18V1167.18ZM1226.42 1180.06L1223.21 1172.39L1220.04 1180.06H1226.42ZM1239.35 1167.18H1247.01L1256.4 1184.55H1257.09V1170.47H1253.07V1167.18H1262.98V1170.47H1260.3V1191.05H1256L1246.41 1173.4H1245.69V1187.28H1249.74V1190.57H1239.35V1187.28H1242.48V1170.47H1239.35V1167.18ZM1285.19 1166.78H1288.4C1288.29 1168.11 1288.23 1169.42 1288.23 1170.71C1288.23 1172.42 1288.4 1174.08 1288.72 1175.68L1285.35 1176.13C1285.27 1175.48 1285.19 1174.96 1285.1 1174.56C1285.05 1174.16 1284.89 1173.64 1284.62 1173C1284.38 1172.33 1284.07 1171.81 1283.7 1171.43C1283.33 1171.06 1282.79 1170.72 1282.1 1170.43C1281.4 1170.11 1280.58 1169.95 1279.65 1169.95C1277.53 1169.95 1275.78 1170.78 1274.39 1172.43C1273 1174.07 1272.3 1176.23 1272.3 1178.93C1272.3 1181.56 1272.97 1183.68 1274.31 1185.31C1275.65 1186.95 1277.59 1187.76 1280.13 1187.76C1281.68 1187.76 1283.42 1187.4 1285.35 1186.68V1182.71H1279.57V1179.42H1290.72V1182.71H1288.84V1189.09C1285.55 1190.5 1282.63 1191.21 1280.09 1191.21C1277.57 1191.21 1275.42 1190.61 1273.63 1189.41C1271.86 1188.18 1270.58 1186.66 1269.78 1184.87C1269 1183.05 1268.61 1181.09 1268.61 1178.97C1268.61 1175.36 1269.67 1172.38 1271.78 1170.03C1273.9 1167.67 1276.44 1166.5 1279.41 1166.5C1281.63 1166.5 1283.47 1167.32 1284.94 1168.98L1285.19 1166.78ZM1299.12 1167.18H1308.79L1316.94 1187.28H1319.18V1190.57H1309.67V1187.28H1313.2L1311.64 1183.35H1302.61L1301.05 1187.28H1304.62V1190.57H1295.11V1187.28H1297.43L1304.3 1170.47H1299.12V1167.18ZM1310.36 1180.06L1307.15 1172.39L1303.98 1180.06H1310.36ZM1341.14 1166.78H1344.35C1344.25 1168.11 1344.19 1169.42 1344.19 1170.71C1344.19 1172.42 1344.35 1174.08 1344.67 1175.68L1341.3 1176.13C1341.22 1175.48 1341.14 1174.96 1341.06 1174.56C1341.01 1174.16 1340.85 1173.64 1340.58 1173C1340.34 1172.33 1340.03 1171.81 1339.66 1171.43C1339.28 1171.06 1338.75 1170.72 1338.05 1170.43C1337.36 1170.11 1336.54 1169.95 1335.61 1169.95C1333.49 1169.95 1331.74 1170.78 1330.35 1172.43C1328.96 1174.07 1328.26 1176.23 1328.26 1178.93C1328.26 1181.56 1328.93 1183.68 1330.27 1185.31C1331.61 1186.95 1333.55 1187.76 1336.09 1187.76C1337.64 1187.76 1339.38 1187.4 1341.3 1186.68V1182.71H1335.53V1179.42H1346.68V1182.71H1344.79V1189.09C1341.5 1190.5 1338.59 1191.21 1336.05 1191.21C1333.53 1191.21 1331.38 1190.61 1329.59 1189.41C1327.82 1188.18 1326.54 1186.66 1325.73 1184.87C1324.96 1183.05 1324.57 1181.09 1324.57 1178.97C1324.57 1175.36 1325.63 1172.38 1327.74 1170.03C1329.85 1167.67 1332.4 1166.5 1335.36 1166.5C1337.59 1166.5 1339.43 1167.32 1340.9 1168.98L1341.14 1166.78ZM1352.87 1167.18H1372.85L1373.05 1175.84H1369.72L1369.36 1170.47H1359.69V1176.61H1364.43V1173.72H1367.76V1182.75H1364.43V1179.9H1359.69V1187.28H1369.72L1369.92 1181.86H1373.26V1190.57H1352.87V1187.28H1356.2V1170.47H1352.87V1167.18Z" fill="white"/>
<circle cx="1613.94" cy="1477.97" r="93.8197" fill="#232728" stroke="#DC7123" stroke-width="24.6534"/>
<rect width="219.141" height="69.8512" transform="translate(1503.69 1443.04)" fill="#232728"/>
<path d="M1565.37 1468.65H1584.67V1472.6H1578.7V1486.28C1578.7 1489.97 1578.21 1492.57 1577.21 1494.08C1575.7 1496.36 1573.23 1497.5 1569.8 1497.5C1566.52 1497.5 1562.93 1496.45 1559.01 1494.37L1558.53 1482.57H1562.67L1562.91 1488.01C1562.97 1489.2 1563.13 1490.1 1563.39 1490.71C1563.68 1491.28 1564.21 1491.8 1564.98 1492.25C1566.3 1492.99 1567.85 1493.35 1569.65 1493.35C1570.58 1493.35 1571.35 1493.23 1571.96 1492.97C1572.6 1492.71 1573.09 1492.41 1573.41 1492.05C1573.76 1491.7 1574.02 1491.17 1574.18 1490.47C1574.34 1489.73 1574.43 1489.1 1574.47 1488.59C1574.5 1488.04 1574.51 1487.27 1574.51 1486.28V1472.6H1565.37V1468.65ZM1608.03 1481.94V1492.78H1612.17V1496.73H1603.84V1494.41C1601.11 1496.4 1598.46 1497.4 1595.89 1497.4C1593.45 1497.4 1591.43 1496.64 1589.83 1495.14C1588.25 1493.6 1587.47 1491.85 1587.47 1489.89C1587.47 1489.09 1587.64 1488.27 1588 1487.43C1588.35 1486.57 1588.91 1485.71 1589.68 1484.88C1590.45 1484.01 1591.59 1483.31 1593.1 1482.76C1594.61 1482.22 1596.36 1481.94 1598.35 1481.94C1599.7 1481.94 1601.53 1482.07 1603.84 1482.33C1603.84 1481.72 1603.81 1481.25 1603.74 1480.93C1603.68 1480.58 1603.52 1480.15 1603.26 1479.63C1603 1479.09 1602.52 1478.68 1601.82 1478.43C1601.14 1478.17 1600.24 1478.04 1599.12 1478.04C1596.9 1478.04 1594.1 1478.78 1590.69 1480.26L1589.06 1476.41C1593.13 1474.74 1596.5 1473.9 1599.17 1473.9C1602.15 1473.9 1604.37 1474.61 1605.81 1476.02C1607.29 1477.4 1608.03 1479.37 1608.03 1481.94ZM1603.84 1488.92V1486.42C1601.37 1486.07 1599.7 1485.89 1598.83 1485.89C1597.55 1485.89 1596.44 1486.02 1595.51 1486.28C1594.58 1486.53 1593.87 1486.82 1593.39 1487.14C1592.94 1487.46 1592.59 1487.85 1592.33 1488.3C1592.07 1488.72 1591.91 1489.05 1591.85 1489.31C1591.82 1489.53 1591.8 1489.74 1591.8 1489.94C1591.8 1490.8 1592.2 1491.57 1593 1492.25C1593.84 1492.92 1594.79 1493.26 1595.84 1493.26C1598.57 1493.26 1601.24 1491.81 1603.84 1488.92ZM1614.58 1474.91H1626.37V1478.86H1623.15L1628.64 1490.85L1634.22 1478.86H1631.09V1474.91H1642.41V1478.86H1638.65L1630.22 1496.73H1626.81L1618.38 1478.86H1614.58V1474.91ZM1665.81 1481.94V1492.78H1669.95V1496.73H1661.62V1494.41C1658.89 1496.4 1656.24 1497.4 1653.67 1497.4C1651.23 1497.4 1649.21 1496.64 1647.61 1495.14C1646.03 1493.6 1645.25 1491.85 1645.25 1489.89C1645.25 1489.09 1645.42 1488.27 1645.78 1487.43C1646.13 1486.57 1646.69 1485.71 1647.46 1484.88C1648.23 1484.01 1649.37 1483.31 1650.88 1482.76C1652.39 1482.22 1654.14 1481.94 1656.13 1481.94C1657.48 1481.94 1659.31 1482.07 1661.62 1482.33C1661.62 1481.72 1661.59 1481.25 1661.52 1480.93C1661.46 1480.58 1661.3 1480.15 1661.04 1479.63C1660.78 1479.09 1660.3 1478.68 1659.6 1478.43C1658.92 1478.17 1658.02 1478.04 1656.9 1478.04C1654.69 1478.04 1651.88 1478.78 1648.47 1480.26L1646.84 1476.41C1650.91 1474.74 1654.28 1473.9 1656.95 1473.9C1659.93 1473.9 1662.15 1474.61 1663.59 1476.02C1665.07 1477.4 1665.81 1479.37 1665.81 1481.94ZM1661.62 1488.92V1486.42C1659.15 1486.07 1657.48 1485.89 1656.61 1485.89C1655.33 1485.89 1654.22 1486.02 1653.29 1486.28C1652.36 1486.53 1651.65 1486.82 1651.17 1487.14C1650.72 1487.46 1650.37 1487.85 1650.11 1488.3C1649.85 1488.72 1649.69 1489.05 1649.63 1489.31C1649.6 1489.53 1649.58 1489.74 1649.58 1489.94C1649.58 1490.8 1649.98 1491.57 1650.79 1492.25C1651.62 1492.92 1652.57 1493.26 1653.63 1493.26C1656.35 1493.26 1659.02 1491.81 1661.62 1488.92Z" fill="white"/>
<circle cx="1182.51" cy="1671.08" r="93.8197" fill="#232728" stroke="#DC7123" stroke-width="24.6534"/>
<rect width="219.141" height="69.8512" transform="translate(1072.25 1636.16)" fill="#232728"/>
<path d="M1193.75 1681.27L1196.55 1684.35C1192.24 1688.53 1187.78 1690.61 1183.16 1690.61C1179.02 1690.61 1175.73 1689.17 1173.29 1686.28C1170.85 1683.39 1169.63 1679.8 1169.63 1675.49C1169.63 1671.1 1170.93 1667.58 1173.53 1664.95C1176.16 1662.28 1179.07 1660.95 1182.25 1660.95C1183.34 1660.95 1184.35 1661.13 1185.28 1661.48C1186.21 1661.8 1186.92 1662.14 1187.4 1662.49C1187.88 1662.85 1188.49 1663.34 1189.23 1663.99L1189.52 1661.29H1193.51C1193.35 1663.31 1193.27 1664.87 1193.27 1665.96C1193.27 1667.79 1193.43 1669.8 1193.75 1671.98L1189.76 1672.51C1189.63 1671.64 1189.52 1670.98 1189.42 1670.53C1189.32 1670.05 1189.11 1669.41 1188.79 1668.61C1188.47 1667.81 1188.09 1667.2 1187.64 1666.78C1187.22 1666.33 1186.6 1665.94 1185.76 1665.62C1184.96 1665.27 1184.01 1665.09 1182.92 1665.09C1180.48 1665.09 1178.39 1666.02 1176.66 1667.89C1174.93 1669.72 1174.06 1672.24 1174.06 1675.45C1174.06 1678.5 1174.83 1681.1 1176.37 1683.25C1177.91 1685.4 1180.16 1686.47 1183.11 1686.47C1184.62 1686.47 1186.15 1686.14 1187.69 1685.46C1189.23 1684.79 1190.37 1684.16 1191.11 1683.58C1191.88 1682.97 1192.76 1682.2 1193.75 1681.27Z" fill="white"/>
<circle cx="855.853" cy="1595.07" r="37.6649" fill="#232728" stroke="#DC7123" stroke-width="6.84816" stroke-dasharray="12.33 12.33"/>
<rect width="138.333" height="34.2408" transform="translate(786 1578.63)" fill="#232728"/>
<path d="M797.025 1591.99H802.723C804.061 1591.99 805.064 1592.28 805.733 1592.85C806.442 1593.47 806.796 1594.25 806.796 1595.2C806.796 1596.18 806.435 1596.94 805.713 1597.49C806.903 1598.1 807.498 1599.03 807.498 1600.26C807.498 1600.73 807.425 1601.15 807.278 1601.52C807.144 1601.9 806.977 1602.2 806.776 1602.44C806.589 1602.67 806.335 1602.87 806.014 1603.05C805.693 1603.22 805.398 1603.35 805.131 1603.43C804.877 1603.51 804.556 1603.57 804.168 1603.61C803.78 1603.65 803.486 1603.67 803.285 1603.69C803.098 1603.69 802.85 1603.69 802.543 1603.69H797.025V1602.04H798.651V1593.64H797.025V1591.99ZM802.683 1593.64H800.396V1596.79H802.583C802.877 1596.79 803.125 1596.77 803.325 1596.75C803.526 1596.72 803.773 1596.66 804.068 1596.57C804.375 1596.47 804.609 1596.3 804.77 1596.06C804.93 1595.81 805.01 1595.49 805.01 1595.1C805.01 1594.12 804.235 1593.64 802.683 1593.64ZM802.422 1598.43H800.396V1602.04H802.503C803.038 1602.04 803.472 1602.03 803.807 1602C804.141 1601.96 804.462 1601.89 804.77 1601.78C805.091 1601.68 805.325 1601.51 805.472 1601.28C805.619 1601.04 805.693 1600.73 805.693 1600.36C805.693 1599.07 804.603 1598.43 802.422 1598.43ZM808.843 1591.99H814.079C815.095 1591.99 815.931 1592.09 816.587 1592.29C817.242 1592.49 817.837 1592.93 818.372 1593.6C819.215 1594.65 819.636 1596 819.636 1597.65C819.636 1599.75 819.068 1601.35 817.931 1602.46C817.088 1603.28 815.784 1603.69 814.019 1603.69H808.843V1602.04H810.387V1593.64H808.843V1591.99ZM814.099 1593.64H812.133V1602.04H814.019C815.223 1602.04 816.099 1601.77 816.647 1601.22C817.409 1600.46 817.791 1599.27 817.791 1597.67C817.791 1596.48 817.53 1595.51 817.008 1594.76C816.687 1594.28 816.319 1593.97 815.905 1593.84C815.49 1593.7 814.888 1593.64 814.099 1593.64ZM820.88 1591.99H826.117C827.133 1591.99 827.969 1592.09 828.625 1592.29C829.28 1592.49 829.875 1592.93 830.41 1593.6C831.253 1594.65 831.674 1596 831.674 1597.65C831.674 1599.75 831.106 1601.35 829.969 1602.46C829.126 1603.28 827.822 1603.69 826.057 1603.69H820.88V1602.04H822.425V1593.64H820.88V1591.99ZM826.137 1593.64H824.171V1602.04H826.057C827.26 1602.04 828.136 1601.77 828.685 1601.22C829.447 1600.46 829.828 1599.27 829.828 1597.67C829.828 1596.48 829.568 1595.51 829.046 1594.76C828.725 1594.28 828.357 1593.97 827.942 1593.84C827.528 1593.7 826.926 1593.64 826.137 1593.64ZM847.363 1602.24C846.374 1601.05 845.879 1599.59 845.879 1597.85C845.879 1596.11 846.374 1594.65 847.363 1593.46C848.367 1592.25 849.664 1591.65 851.256 1591.65C852.861 1591.65 854.158 1592.25 855.148 1593.44C856.138 1594.63 856.632 1596.09 856.632 1597.83C856.632 1599.57 856.131 1601.03 855.128 1602.22C854.138 1603.41 852.847 1604.01 851.256 1604.01C849.664 1604.01 848.367 1603.42 847.363 1602.24ZM847.725 1597.83C847.725 1599.06 848.046 1600.11 848.688 1600.98C849.33 1601.85 850.186 1602.28 851.256 1602.28C852.326 1602.28 853.182 1601.86 853.824 1601C854.466 1600.13 854.787 1599.07 854.787 1597.83C854.787 1596.63 854.466 1595.58 853.824 1594.7C853.195 1593.82 852.339 1593.38 851.256 1593.38C850.186 1593.38 849.33 1593.82 848.688 1594.7C848.046 1595.57 847.725 1596.61 847.725 1597.83ZM858.699 1594.6H862.671V1596.08C863.046 1595.72 863.36 1595.44 863.614 1595.24C863.882 1595.04 864.263 1594.84 864.758 1594.64C865.253 1594.43 865.768 1594.32 866.303 1594.32C866.771 1594.32 867.206 1594.4 867.607 1594.56C868.008 1594.72 868.289 1594.87 868.45 1595C868.61 1595.13 868.804 1595.32 869.031 1595.54L867.246 1596.91C866.911 1596.33 866.483 1596.04 865.962 1596.04C865.801 1596.04 865.627 1596.08 865.44 1596.14C865.266 1596.2 865.092 1596.27 864.918 1596.37C864.745 1596.46 864.564 1596.57 864.377 1596.71C864.203 1596.84 864.042 1596.97 863.895 1597.11C863.748 1597.23 863.594 1597.36 863.434 1597.51C863.287 1597.66 863.166 1597.78 863.073 1597.87C862.979 1597.96 862.892 1598.06 862.812 1598.15L862.671 1598.29V1602.04H866.383V1603.69H858.518V1602.04H860.926V1596.24H858.699V1594.6ZM878.842 1597.53V1602.04H880.568V1603.69H877.097V1602.72C875.96 1603.55 874.856 1603.97 873.786 1603.97C872.77 1603.97 871.927 1603.65 871.258 1603.03C870.603 1602.38 870.275 1601.65 870.275 1600.84C870.275 1600.5 870.349 1600.16 870.496 1599.82C870.643 1599.45 870.877 1599.1 871.198 1598.75C871.519 1598.39 871.994 1598.1 872.623 1597.87C873.251 1597.64 873.98 1597.53 874.81 1597.53C875.371 1597.53 876.134 1597.58 877.097 1597.69C877.097 1597.44 877.083 1597.24 877.057 1597.11C877.03 1596.96 876.963 1596.78 876.856 1596.57C876.749 1596.34 876.548 1596.17 876.254 1596.06C875.973 1595.96 875.599 1595.9 875.131 1595.9C874.208 1595.9 873.037 1596.21 871.619 1596.83L870.937 1595.22C872.636 1594.53 874.04 1594.18 875.151 1594.18C876.394 1594.18 877.317 1594.47 877.919 1595.06C878.535 1595.64 878.842 1596.46 878.842 1597.53ZM877.097 1600.44V1599.39C876.067 1599.25 875.371 1599.17 875.01 1599.17C874.475 1599.17 874.014 1599.23 873.626 1599.33C873.238 1599.44 872.944 1599.56 872.743 1599.7C872.556 1599.83 872.409 1599.99 872.302 1600.18C872.195 1600.35 872.128 1600.49 872.101 1600.6C872.088 1600.69 872.081 1600.78 872.081 1600.86C872.081 1601.22 872.248 1601.54 872.583 1601.82C872.93 1602.1 873.325 1602.24 873.766 1602.24C874.903 1602.24 876.013 1601.64 877.097 1600.44ZM890.459 1594.32L892.024 1594.48C891.943 1595.2 891.903 1595.87 891.903 1596.49C891.903 1597.05 891.943 1597.64 892.024 1598.25L890.338 1598.47C890.271 1598.06 890.211 1597.75 890.158 1597.55C890.104 1597.33 889.99 1597.09 889.817 1596.83C889.656 1596.55 889.402 1596.34 889.054 1596.22C888.706 1596.1 888.258 1596.04 887.71 1596.04C887.041 1596.04 886.466 1596.16 885.985 1596.41C885.516 1596.63 885.175 1596.93 884.961 1597.29C884.747 1597.64 884.594 1597.96 884.5 1598.27C884.42 1598.58 884.38 1598.87 884.38 1599.13C884.38 1599.94 884.64 1600.66 885.162 1601.3C885.697 1601.93 886.5 1602.24 887.57 1602.24C888.051 1602.24 888.566 1602.14 889.114 1601.92C889.663 1601.71 890.111 1601.49 890.459 1601.28C890.82 1601.07 891.254 1600.78 891.763 1600.42L892.726 1601.78C890.826 1603.24 889.081 1603.97 887.489 1603.97C886.045 1603.97 884.854 1603.51 883.918 1602.58C882.995 1601.66 882.534 1600.52 882.534 1599.15C882.534 1597.88 882.975 1596.76 883.858 1595.78C884.741 1594.81 885.931 1594.32 887.429 1594.32C888.459 1594.32 889.409 1594.69 890.278 1595.42L890.459 1594.32ZM895.234 1591.03L900.269 1590.69V1602.04H903.64V1603.69H895.153V1602.04H898.524V1592.49L895.394 1592.69L895.234 1591.03ZM916.179 1600.8L916.982 1602.34C915.109 1603.43 913.377 1603.97 911.786 1603.97C910.181 1603.97 908.923 1603.51 908.014 1602.58C907.104 1601.66 906.649 1600.53 906.649 1599.19C906.649 1597.84 907.104 1596.69 908.014 1595.74C908.937 1594.79 910.147 1594.32 911.645 1594.32C913.13 1594.32 914.293 1594.76 915.136 1595.64C915.992 1596.51 916.42 1597.49 916.42 1598.57C916.42 1599.03 916.4 1599.43 916.36 1599.8H908.495C908.562 1600.08 908.636 1600.32 908.716 1600.52C908.81 1600.71 908.963 1600.95 909.177 1601.26C909.405 1601.57 909.739 1601.81 910.181 1601.98C910.622 1602.16 911.144 1602.24 911.745 1602.24C913.07 1602.24 914.548 1601.76 916.179 1600.8ZM908.616 1598.15H914.574C914.2 1596.75 913.23 1596.04 911.665 1596.04C910.154 1596.04 909.137 1596.75 908.616 1598.15Z" fill="white"/>
<circle cx="918.856" cy="1351.28" r="63.003" fill="#232728" stroke="#DC7123" stroke-width="10.957"/>
<rect width="154.768" height="61.6334" transform="translate(840.786 1319.77)" fill="#232728"/>
<path d="M901.402 1342.03H904.612C904.505 1343.21 904.452 1344.36 904.452 1345.48C904.452 1346.55 904.532 1348.05 904.692 1349.98C904.746 1350.14 904.773 1350.46 904.773 1350.94L901.603 1351.38C901.522 1350.74 901.442 1350.25 901.362 1349.9C901.308 1349.52 901.161 1349 900.92 1348.33C900.68 1347.64 900.372 1347.1 899.998 1346.73C899.65 1346.33 899.142 1345.98 898.473 1345.68C897.804 1345.36 897.028 1345.2 896.145 1345.2C894.46 1345.2 893.176 1345.6 892.293 1346.41C891.411 1347.21 890.969 1348.11 890.969 1349.1C890.969 1349.76 891.143 1350.33 891.491 1350.78C891.839 1351.21 892.347 1351.54 893.016 1351.78C893.711 1352 894.246 1352.14 894.621 1352.23C895.022 1352.31 895.57 1352.39 896.266 1352.47C898.7 1352.76 900.305 1353.07 901.081 1353.39C901.455 1353.55 901.817 1353.74 902.164 1353.95C904.064 1355.15 905.013 1356.89 905.013 1359.17C905.013 1361.23 904.197 1362.97 902.566 1364.38C900.934 1365.77 898.941 1366.47 896.587 1366.47C895.57 1366.47 894.674 1366.34 893.898 1366.07C893.149 1365.8 892.614 1365.53 892.293 1365.27C891.972 1365 891.598 1364.64 891.17 1364.18L890.849 1366.59H887.599C887.679 1365.79 887.719 1364.89 887.719 1363.9C887.719 1361.9 887.612 1359.76 887.398 1357.48H890.608C890.956 1361.17 892.775 1363.02 896.065 1363.02C897.456 1363.02 898.687 1362.71 899.757 1362.1C900.854 1361.45 901.402 1360.5 901.402 1359.25C901.402 1358.47 901.148 1357.84 900.64 1357.36C900.158 1356.88 899.61 1356.57 898.994 1356.44C898.406 1356.28 897.63 1356.14 896.667 1356.04C896.079 1355.98 895.597 1355.93 895.223 1355.88C894.875 1355.82 894.34 1355.73 893.618 1355.6C892.895 1355.44 892.293 1355.26 891.812 1355.07C891.33 1354.89 890.782 1354.62 890.167 1354.27C889.551 1353.92 889.057 1353.54 888.682 1353.11C888.308 1352.65 887.987 1352.09 887.719 1351.42C887.478 1350.75 887.358 1350 887.358 1349.18C887.358 1347.12 888.214 1345.36 889.926 1343.92C891.638 1342.47 893.537 1341.75 895.624 1341.75C897.684 1341.75 899.503 1342.59 901.081 1344.28L901.402 1342.03ZM928.688 1365.95L930.774 1368.52L930.413 1368.76C929.744 1369.21 929.263 1369.52 928.968 1369.68C928.701 1369.84 928.246 1370.03 927.604 1370.24C926.989 1370.48 926.374 1370.6 925.758 1370.6C924.769 1370.6 923.552 1370.28 922.107 1369.64C921.064 1369.19 920.168 1368.96 919.419 1368.96C918.696 1368.96 918.054 1369.06 917.492 1369.28C916.957 1369.49 916.088 1369.95 914.884 1370.64C914.858 1370.64 914.804 1370.67 914.724 1370.72C914.644 1370.78 914.59 1370.82 914.563 1370.84L912.878 1367.95C913.6 1367.53 914.122 1367.18 914.443 1366.91C914.791 1366.67 915.286 1366.2 915.928 1365.51C914.269 1364.73 913.012 1363.81 912.156 1362.74C910.283 1360.41 909.347 1357.5 909.347 1353.99C909.347 1350.25 910.39 1347.28 912.477 1345.08C914.563 1342.86 917.078 1341.75 920.02 1341.75C923.043 1341.75 925.585 1342.88 927.644 1345.12C929.731 1347.37 930.774 1350.38 930.774 1354.15C930.774 1356.02 930.507 1357.71 929.972 1359.21C929.463 1360.68 928.848 1361.83 928.126 1362.66C927.404 1363.46 926.588 1364.13 925.678 1364.66C924.769 1365.2 923.993 1365.55 923.351 1365.71C922.736 1365.87 922.187 1365.96 921.706 1365.99V1366.07H922.227C922.682 1366.44 923.244 1366.75 923.913 1366.99C924.581 1367.23 925.157 1367.35 925.638 1367.35C926.414 1367.35 927.43 1366.88 928.688 1365.95ZM919.9 1362.9C920.301 1362.9 920.703 1362.87 921.104 1362.82C921.505 1362.76 922.094 1362.58 922.869 1362.26C923.672 1361.94 924.354 1361.49 924.916 1360.93C925.478 1360.37 925.972 1359.51 926.4 1358.36C926.855 1357.19 927.083 1355.8 927.083 1354.19C927.083 1352.72 926.895 1351.42 926.521 1350.3C926.146 1349.15 925.692 1348.27 925.157 1347.65C924.622 1347.04 924.006 1346.53 923.311 1346.13C922.615 1345.72 922 1345.47 921.465 1345.36C920.957 1345.26 920.475 1345.2 920.02 1345.2C919.325 1345.2 918.616 1345.34 917.894 1345.6C917.171 1345.87 916.422 1346.31 915.647 1346.93C914.898 1347.52 914.269 1348.43 913.761 1349.66C913.279 1350.89 913.039 1352.33 913.039 1353.99C913.039 1356.91 913.694 1359.13 915.005 1360.65C916.342 1362.15 917.974 1362.9 919.9 1362.9ZM934.024 1342.43H946.183V1345.72H941.367V1362.54H950.837L951.359 1354.59H954.769L954.248 1365.83H934.024V1362.54H937.876V1345.72H934.024V1342.43Z" fill="white"/>
<line x1="466.224" y1="436.818" x2="1204.22" y2="1097.82" stroke="url(#paint0_linear_124_2609)" stroke-width="24.6534"/>
<defs>
<linearGradient id="paint0_linear_124_2609" x1="458" y1="446" x2="1163.29" y2="1056.29" gradientUnits="userSpaceOnUse">
<stop stop-color="#DC234F"/>
<stop offset="1" stop-color="#DC7123"/>
</linearGradient>
</defs>
</svg>
